HIERARCHY
ROOT Hips
{
	OFFSET 0.00000 0.00000 0.00000
	CHANNELS 6 Xposition Yposition Zposition Zrotation Yrotation Xrotation 
	JOINT LHipJoint
	{
		OFFSET 0 0 0
		CHANNELS 3 Zrotation Yrotation Xrotation
		JOINT LeftHip
		{
			OFFSET 1.30186 -1.90722 0.65024
			CHANNELS 3 Zrotation Yrotation Xrotation
			JOINT LeftKnee
			{
				OFFSET 2.56413 -7.04489 0.00000
				CHANNELS 3 Zrotation Yrotation Xrotation
				JOINT LeftAnkle
				{
					OFFSET 2.79321 -7.67428 0.00000
					CHANNELS 3 Zrotation Yrotation Xrotation
					JOINT LeftToe
					{
						OFFSET 0.15723 -0.43198 2.08537
						CHANNELS 3 Zrotation Yrotation Xrotation
						End Site
						{
							OFFSET 0.00000 -0.00000 1.07411
						}
					}
				}
			}
		}
	}
	JOINT RHipJoint
	{
		OFFSET 0 0 0
		CHANNELS 3 Zrotation Yrotation Xrotation
		JOINT RightHip
		{
			OFFSET -1.28627 -1.90723 0.65024
			CHANNELS 3 Zrotation Yrotation Xrotation
			JOINT RightKnee
			{
				OFFSET -2.56567 -7.04913 0.00000
				CHANNELS 3 Zrotation Yrotation Xrotation
				JOINT RightAnkle
				{
					OFFSET -2.75597 -7.57198 0.00000
					CHANNELS 3 Zrotation Yrotation Xrotation
					JOINT RightToe
					{
						OFFSET -0.17500 -0.48081 2.22901
						CHANNELS 3 Zrotation Yrotation Xrotation
						End Site
						{
							OFFSET -0.00000 -0.00000 1.14762
						}
					}
				}
			}
		}
	}
	JOINT lowerback
	{
		OFFSET 0 0 0
		CHANNELS 3 Zrotation Yrotation Xrotation
		JOINT Chest
		{
			OFFSET -0.04522 2.07467 -0.16566
			CHANNELS 3 Zrotation Yrotation Xrotation
			JOINT Chest2
			{
				OFFSET -0.01178 2.08825 -0.05393
				CHANNELS 3 Zrotation Yrotation Xrotation
				JOINT lowerneck
				{
					OFFSET 0 0 0
					CHANNELS 3 Zrotation Yrotation Xrotation
					JOINT Neck
					{
						OFFSET -0.05182 1.80489 0.16014
						CHANNELS 3 Zrotation Yrotation Xrotation
						JOINT Head
						{
							OFFSET 0.14739 1.78840 -0.33342
							CHANNELS 3 Zrotation Yrotation Xrotation
							End Site
							{
								OFFSET 0.04364 1.83899 -0.13460
							}
						}
					}
				}
				JOINT LeftCollar
				{
					OFFSET 0 0 0
					CHANNELS 3 Zrotation Yrotation Xrotation
					JOINT LeftShoulder
					{
						OFFSET 3.01264 1.29090 -0.06579
CHANNELS 3 Zrotation Xrotation Yrotation
						JOINT LeftElbow
						{
OFFSET 0 -5.556800 0.000000
CHANNELS 3 Zrotation Xrotation Yrotation
							JOINT LeftWrist
							{
OFFSET 0 -3.639790 -0.000000
CHANNELS 3 Zrotation Xrotation Yrotation
								JOINT lhand
								{
									OFFSET 0 0 0
CHANNELS 3 Zrotation Xrotation Yrotation
									JOINT LFingers
									{
OFFSET 0 -0.569420 -0.000000
CHANNELS 3 Zrotation Xrotation Yrotation
										End Site
										{
OFFSET 0 -0.459080 -0.000000
										}
									}
								}
								JOINT LThumb
								{
OFFSET 0 0.000000 0.000000
CHANNELS 3 Zrotation Xrotation Yrotation
									End Site
									{
OFFSET 0 -0.466090 0.466090
									}
								}
							}
						}
					}
				}
				JOINT RightCollar
				{
					OFFSET 0 0 0
					CHANNELS 3 Zrotation Yrotation Xrotation
					JOINT RightShoulder
					{
						OFFSET -3.15796 1.37283 -0.36748
CHANNELS 3 Zrotation Xrotation Yrotation
						JOINT RightElbow
						{
OFFSET 0 -5.343390 0.000000
CHANNELS 3 Zrotation Xrotation Yrotation
							JOINT RightWrist
							{
OFFSET 0 -3.651010 -0.000000
CHANNELS 3 Zrotation Xrotation Yrotation
								JOINT rhand
								{
									OFFSET 0 0 0
CHANNELS 3 Zrotation Xrotation Yrotation
									JOINT RFingers
									{
OFFSET 0 -0.694250 -0.000000
CHANNELS 3 Zrotation Xrotation Yrotation
										End Site
										{
OFFSET 0 -0.559720 -0.000000
										}
									}
								}
								JOINT RThumb
								{
OFFSET 0 0.000000 0.000000
CHANNELS 3 Zrotation Xrotation Yrotation
									End Site
									{
OFFSET 0 -0.568270 0.568270
									}
								}
							}
						}
					}
				}
			}
		}
	}
}
MOTION
Frames: 10
Frame Time: 0.008333333333333333
4.332300 18.815500 27.119600 174.831000 4.441000 -174.898000 0.000000 0.000000 0.000000 -29.994600 -5.443200 -14.466700 1.572700 7.912800 22.449400 0.394000 -1.568500 -11.415000 0.000500 0.139200 0.382400 0.000000 0.000000 0.000000 9.779800 11.516000 -15.537500 -11.396300 -18.123600 64.062100 -0.079800 6.515700 11.090000 -0.237100 -3.134000 8.652000 -7.336700 -0.539700 2.476200 -1.812000 -0.674200 1.977100 2.253000 -0.333000 0.726300 -2.791400 -0.606500 -12.423000 -2.384500 0.422700 15.352900 -0.255400 -0.051000 6.740200 0.000000 -0.000000 0.000000 6.793800 -13.038800 -26.338900 13.134500 -21.484000 2.502300 28.667400 11.032900 -9.783600 0.000000 0.000000 0.000000 -7.125000 0.000000 0.000000 1.493200 41.093600 0.143900 0.000000 -0.000000 0.000000 -31.247400 -1.367900 49.788400 -62.333900 -56.900400 -36.289800 7.160300 12.573500 -43.483700 0.000000 0.000000 0.000000 7.125000 0.000000 -0.000000 21.489300 -11.146500 27.005600
4.316121 18.810213 27.062721 174.891160 4.588028 -174.652346 0.000000 0.000000 0.000000 -30.002257 -5.569445 -14.633873 1.602005 7.982212 22.660189 0.409678 -1.486099 -11.662842 0.000409 0.129310 0.355282 0.000000 0.000000 0.000000 9.573113 11.873361 -16.490721 -11.469814 -18.157189 64.297956 -0.053776 6.480287 10.477277 -0.231585 -3.097220 8.549591 -7.178825 -0.478993 2.295947 -1.788711 -0.587195 1.902128 2.187006 -0.290614 0.739244 -2.762414 -0.638677 -12.411333 -2.359251 0.359942 15.272595 -0.257998 -0.078209 6.712171 0.000000 0.000000 0.000000 6.623802 -13.487814 -26.987674 13.227566 -21.619588 2.536619 26.832421 12.888890 -14.808760 0.000000 0.000000 0.000000 -7.125000 0.000000 0.000000 -1.047477 46.349420 0.427884 0.000000 0.000000 0.000000 -31.284134 -1.372321 49.773907 -62.341101 -56.902132 -36.295816 6.682801 12.161220 -43.178387 0.000000 0.000000 0.000000 7.125000 0.000000 0.000000 21.263745 -10.880792 26.606537
4.299941 18.804926 27.005842 174.951321 4.735056 -174.406691 0.000000 0.000000 0.000000 -30.009914 -5.695691 -14.801045 1.631311 8.051624 22.870978 0.425356 -1.403697 -11.910684 0.000318 0.119420 0.328165 0.000000 0.000000 0.000000 9.366426 12.230722 -17.443942 -11.543328 -18.190779 64.533811 -0.027752 6.444875 9.864554 -0.226071 -3.060440 8.447182 -7.020950 -0.418286 2.115694 -1.765421 -0.500191 1.827155 2.121012 -0.248229 0.752187 -2.733427 -0.670853 -12.399665 -2.334002 0.297184 15.192290 -0.260596 -0.105418 6.684142 0.000000 0.000000 0.000000 6.453803 -13.936829 -27.636448 13.320632 -21.755177 2.570937 24.997441 14.744880 -19.833920 0.000000 0.000000 0.000000 -7.125000 0.000000 0.000000 -3.588155 51.605239 0.711868 0.000000 0.000000 0.000000 -31.320868 -1.376742 49.759414 -62.348302 -56.903864 -36.301832 6.205301 11.748940 -42.873073 0.000000 0.000000 0.000000 7.125000 0.000000 0.000000 21.038189 -10.615084 26.207474
4.298489 18.806802 26.938937 174.965571 4.440835 -174.490119 0.000000 0.000000 0.000000 -30.009380 -5.724791 -14.420128 1.640710 8.073768 22.938271 0.436590 -1.635466 -12.023955 0.006103 0.374962 1.030499 0.000000 0.000000 0.000000 9.383008 12.100117 -17.860018 -11.560795 -18.198769 64.589847 0.004552 6.452765 9.018388 -0.175454 -2.642792 7.288919 -7.061993 -0.494977 2.198376 -1.692403 -0.608175 1.878820 2.220881 -0.304898 0.770787 -2.710134 -0.689587 -12.373527 -2.311801 0.249851 15.054139 -0.261651 -0.125685 6.635067 0.000000 0.000000 0.000000 6.312159 -14.349813 -28.334877 13.440620 -21.929109 2.615760 26.033811 13.397354 -16.620942 0.000000 0.000000 0.000000 -7.125000 0.000000 0.000000 -2.102502 48.224902 0.536863 0.000000 0.000000 0.000000 -31.404982 -1.409223 49.785395 -62.494298 -56.938541 -36.424202 6.616176 11.755100 -42.871683 0.000000 0.000000 0.000000 7.125000 0.000000 0.000000 21.227512 -10.595233 26.472010
4.300586 18.810402 26.869616 174.968761 4.040314 -174.652825 0.000000 0.000000 0.000000 -30.006873 -5.730488 -13.907170 1.645313 8.084524 22.970994 0.446754 -1.942922 -12.104807 0.013304 0.694450 1.908566 0.000000 0.000000 0.000000 9.453377 11.851956 -18.146691 -11.564760 -18.200592 64.602563 0.038369 6.471086 8.115984 -0.113972 -2.133390 5.876292 -7.150957 -0.604770 2.344402 -1.607403 -0.763133 1.960994 2.360708 -0.385431 0.790749 -2.688212 -0.705083 -12.343903 -2.290335 0.206235 14.902052 -0.262335 -0.144280 6.580923 0.000000 0.000000 0.000000 6.177345 -14.754117 -29.045270 13.567093 -22.112279 2.663114 27.761915 11.278071 -11.423323 0.000000 0.000000 0.000000 -7.125000 0.000000 0.000000 0.353131 42.764036 0.251284 0.000000 0.000000 0.000000 -31.500509 -1.448464 49.821126 -62.673730 -56.981154 -36.574603 7.241068 11.862067 -42.943511 0.000000 0.000000 0.000000 7.125000 0.000000 0.000000 21.516782 -10.634611 26.896413
4.299532 18.813278 26.802442 174.952436 3.790511 -174.705127 0.000000 0.000000 0.000000 -30.034923 -5.740200 -13.569800 1.652286 8.100744 23.020446 0.461880 -2.203316 -12.265534 0.019613 0.895086 2.460188 0.000000 0.000000 0.000000 9.419643 11.785766 -18.588125 -11.576866 -18.206040 64.641235 0.066248 6.515503 7.258271 -0.072229 -1.686327 4.640619 -7.224560 -0.673997 2.423571 -1.546855 -0.863168 1.983923 2.466076 -0.436941 0.781744 -2.721464 -0.709483 -12.365131 -2.194123 0.182860 14.840296 -0.228419 -0.150942 6.564500 0.000000 0.000000 0.000000 6.073506 -15.108433 -29.776461 13.727134 -22.342733 2.723905 26.288246 11.693927 -14.744042 0.000000 0.000000 0.000000 -7.125000 0.000000 0.000000 -2.263743 45.986222 1.269309 0.000000 0.000000 0.000000 -31.574290 -1.477947 49.862629 -62.839641 -57.020171 -36.713768 7.643786 11.901063 -43.306209 0.000000 0.000000 0.000000 7.125000 0.000000 0.000000 21.706913 -10.959171 27.264360
4.296478 18.815693 26.736630 174.923723 3.636373 -174.687352 0.000000 0.000000 0.000000 -30.082367 -5.752460 -13.343880 1.660763 8.120433 23.080515 0.480156 -2.433839 -12.476961 0.025355 1.020283 2.804605 0.000000 0.000000 0.000000 9.319832 11.835079 -19.127790 -11.594140 -18.213787 64.696381 0.090358 6.576484 6.428926 -0.043015 -1.278832 3.517262 -7.288412 -0.717477 2.460305 -1.501826 -0.928342 1.969247 2.549571 -0.470029 0.754353 -2.789737 -0.706840 -12.418637 -2.050467 0.172332 14.835875 -0.172543 -0.150031 6.572020 0.000000 0.000000 0.000000 5.989327 -15.431020 -30.520853 13.908480 -22.603200 2.793226 22.782316 13.718913 -23.471611 0.000000 0.000000 0.000000 -7.125000 0.000000 0.000000 -8.100291 54.719807 3.114771 0.000000 0.000000 0.000000 -31.634268 -1.501236 49.907795 -62.996969 -57.056905 -36.845801 7.905483 11.896916 -43.853530 0.000000 0.000000 0.000000 7.125000 0.000000 0.000000 21.834115 -11.464745 27.596472
4.292587 18.814436 26.672683 174.882830 3.506900 -174.650356 0.000000 0.000000 0.000000 -30.154534 -5.716436 -13.163712 1.666119 8.132890 23.118526 0.493921 -2.646206 -12.630969 0.024894 0.999602 2.747777 0.000000 0.000000 0.000000 9.184888 11.928927 -19.680853 -11.604466 -18.218414 64.729394 0.105466 6.539223 5.669160 -0.031367 -1.129293 3.104779 -7.358296 -0.748148 2.463582 -1.460222 -0.973570 1.953906 2.632153 -0.493753 0.743234 -2.865165 -0.718108 -12.456366 -1.905232 0.144751 14.840970 -0.116477 -0.157208 6.579997 0.000000 0.000000 0.000000 5.875440 -15.763808 -31.204306 14.092092 -22.865779 2.864127 21.591175 14.324570 -26.156056 0.000000 0.000000 0.000000 -7.125000 0.000000 0.000000 -9.770549 57.463767 3.420585 0.000000 0.000000 0.000000 -31.694265 -1.526314 49.935699 -63.057255 -57.071011 -36.896379 7.748730 11.746890 -44.355100 0.000000 0.000000 0.000000 7.125000 0.000000 0.000000 21.773722 -11.945197 27.646268
4.287529 18.808055 26.611338 174.824948 3.411828 -174.586549 0.000000 0.000000 0.000000 -30.261182 -5.613070 -13.047357 1.667121 8.135260 23.125773 0.501396 -2.833250 -12.704894 0.015778 0.775459 2.131317 0.000000 0.000000 0.000000 9.000943 12.084887 -20.252603 -11.605105 -18.218688 64.731537 0.108018 6.364940 5.006440 -0.044219 -1.339535 3.683776 -7.436596 -0.760955 2.420193 -1.423397 -0.990980 1.937635 2.713460 -0.504418 0.754810 -2.950575 -0.748781 -12.472090 -1.757794 0.093387 14.859337 -0.060145 -0.175666 6.588611 0.000000 0.000000 0.000000 5.720117 -16.110823 -31.802763 14.278862 -23.131304 2.937231 23.628557 12.950637 -20.411936 0.000000 0.000000 0.000000 -7.125000 0.000000 0.000000 -5.629928 51.853776 1.578997 0.000000 0.000000 0.000000 -31.754288 -1.553888 49.939527 -62.982191 -57.053555 -36.833348 7.008348 11.393403 -44.792857 0.000000 0.000000 0.000000 7.125000 0.000000 0.000000 21.451682 -12.390611 27.302306
4.282582 18.800849 26.550176 174.762382 3.301522 -174.524474 0.000000 0.000000 0.000000 -30.371679 -5.548004 -12.902731 1.667951 8.137222 23.131756 0.508086 -3.002208 -12.771272 0.008079 0.573965 1.577190 0.000000 0.000000 0.000000 8.814117 12.220695 -20.823386 -11.601140 -18.216894 64.718923 0.109898 6.194640 4.330654 -0.057194 -1.539695 4.235185 -7.520466 -0.775758 2.379188 -1.385767 -1.011180 1.921955 2.798760 -0.516498 0.766163 -3.019039 -0.787590 -12.466998 -1.633626 0.030332 14.859577 -0.015046 -0.200377 6.587947 0.000000 0.000000 0.000000 5.549722 -16.455914 -32.382942 14.466315 -23.397166 3.011007 25.063282 12.006790 -16.337382 0.000000 0.000000 0.000000 -7.125000 0.000000 0.000000 -2.644752 47.887914 0.208148 0.000000 0.000000 0.000000 -31.821155 -1.577041 49.936013 -62.913004 -57.037454 -36.775265 4.795545 10.066513 -44.424518 0.000000 0.000000 0.000000 7.125000 0.000000 0.000000 20.362519 -12.226534 25.804548
